# xmcd
#
# Track frame offsets:
#	150
#	21315
#	43955
#	57692
#	76142
#	89825
#	109436
#	125199
#	140488
#	157155
#	173289
#	194987
#	214286
#	229276
#	246348
#
# Disc length: 3539 seconds
#
# Revision: 1
# Processed by: cddbd v1.5.1PL2 Copyright (c) Steve Scherf et al.
# Submitted via: audiograbber 1.83.01
#
DISCID=f30dd10f
DTITLE=Various Artist - HCK04
DYEAR=1900
DGENRE=Karaoke
TTITLE0=Supertramp - Bloody Well Right
TTITLE1=Plant, Robert - Big Log
TTITLE2=Foreigner - Long Long Way From Home
TTITLE3=Davis, Paul - 65 Love Affair
TTITLE4=Rolling Stones - Heart of Stone
TTITLE5=Boston - Hitch A Ride
TTITLE6=Boston - More Than A Feeling
TTITLE7=Adams, Bryan - Cuts Like A Knife
TTITLE8=Asia - Don't Cry
TTITLE9=McDonald, Michael - I Keep Forgettin
TTITLE10=Squier, Billy - Lonely Is The Night
TTITLE11=Toto - I'll Be Over You
TTITLE12=Badfinger - Day After Day
TTITLE13=Blue Oyster Cult - Godzilla
TTITLE14=Supertramp - It's Raining Again
EXTD=
EXTT0=
EXTT1=
EXTT2=
EXTT3=
EXTT4=
EXTT5=
EXTT6=
EXTT7=
EXTT8=
EXTT9=
EXTT10=
EXTT11=
EXTT12=
EXTT13=
EXTT14=
PLAYORDER=
